<?xml version="1.0" encoding="utf-8"?>
<!-- Generator: Adobe Illustrator 24.0.1, SVG Export Plug-In . SVG Version: 6.00 Build 0)  -->
<svg version="1.1" id="Layer_1" xmlns="http://www.w3.org/2000/svg" xmlns:xlink="http://www.w3.org/1999/xlink" x="0px" y="0px"
	 viewBox="0 0 512 512" style="enable-background:new 0 0 512 512;" xml:space="preserve">
<style type="text/css">
	.st0{clip-path:url(#SVGID_2_);}
	.st1{opacity:0.1;}
	.st2{fill:#FFFFFF;}
</style>
<title>Assets</title>
<g>
	<defs>
		<rect id="SVGID_1_" x="1.7" width="512" height="512"/>
	</defs>
	<clipPath id="SVGID_2_">
		<use xlink:href="#SVGID_1_"  style="overflow:visible;"/>
	</clipPath>
	<g class="st0">
		<g class="st1">
			<path class="st2" d="M704.3-40.4c-38.6-35.2-98.4-32.4-133.6,6.2L532.1,8.1l-20.6-18.7l45.9-50.3c6.9-7.6,6.4-19.4-1.2-26.3
				c0,0,0,0,0,0c-7.6-6.9-19.4-6.4-26.3,1.3c0,0,0,0,0,0l-58.4,64.1l-95,104.3c-21.3,23.4-57.5,25.1-80.9,3.8
				c-11.2-10.2-17.9-24.5-18.6-39.7c-0.7-15.2,4.6-30,14.9-41.2l4.8-5.3c18.6-20.5,50.4-22,70.8-3.3c0,0,0,0,0,0
				c7.6,6.9,19.4,6.4,26.3-1.2c6.9-7.6,6.4-19.4-1.2-26.3c0,0,0,0,0,0c-35.7-32.5-91-30-123.5,5.7c0,0,0,0,0,0l-4.8,5.3
				c-17,18.5-25.8,43-24.6,68.1c2.4,52.2,46.7,92.5,98.8,90.1c25.1-1.2,48.7-12.2,65.6-30.8L486.4,17L507,35.7l-25.2,27.7
				c-6.6,7.9-5.5,19.7,2.4,26.3c7.4,6.2,18.3,5.7,25.1-1.2l25.2-27.7l42.4,38.6c18.5,17,43,25.8,68.1,24.6
				c52.2-2.5,92.5-46.7,90.1-98.9C734,0,722.9-23.6,704.3-40.4z M616.9-10.4c12.1-0.5,22.4,8.9,23,21s-8.9,22.4-21,23
				c-12.1,0.5-22.4-8.8-23-21C595.3,0.4,604.7-9.9,616.9-10.4C616.8-10.5,616.9-10.5,616.9-10.4L616.9-10.4z"/>
			<path class="st2" d="M461.8,132.5c-1.2,0.1-2.5,0-3.7-0.2c-1.2-0.2-2.4-0.5-3.5-0.9c-1.1-0.4-2.2-0.9-3.3-1.6
				c-2.1-1.2-3.9-2.9-5.3-4.9c-0.7-1-1.4-2-1.9-3.1c-0.5-1.1-0.9-2.3-1.2-3.5c-0.6-2.4-0.7-4.8-0.3-7.2c0.2-1.2,0.5-2.4,0.9-3.6
				c0.4-1.2,0.9-2.3,1.6-3.3c0.6-1.1,1.3-2.1,2.2-2.9c4.2-4.6,10.4-6.8,16.6-5.9c1.2,0.2,2.4,0.5,3.5,1c1.1,0.4,2.2,0.9,3.2,1.5
				c1.1,0.6,2.1,1.3,3,2.2c0.9,0.8,1.7,1.7,2.4,2.7c0.7,1,1.3,2,1.9,3.1c0.5,1.1,0.9,2.3,1.2,3.5c0.3,1.2,0.5,2.4,0.5,3.6
				c0,1.2,0,2.4-0.2,3.7c-0.2,1.2-0.5,2.4-1,3.6c-0.4,1.2-0.9,2.3-1.6,3.3c-0.6,1.1-1.3,2.1-2.2,2.9c-0.8,0.9-1.7,1.7-2.7,2.4
				c-1,0.7-2,1.4-3.1,1.9c-1.1,0.5-2.3,0.9-3.5,1.2C464.3,132.3,463.1,132.5,461.8,132.5z"/>
		</g>
	</g>
</g>
</svg>
