<svg id="Decoration" xmlns="http://www.w3.org/2000/svg" width="463" height="515.594" viewBox="0 0 463 515.594">
  <defs>
    <style>
      .cls-1 {
        fill: #3d83fa;
      }

      .cls-1, .cls-2 {
        fill-rule: evenodd;
      }

      .cls-2, .cls-3 {
        opacity: 0.1;
      }
    </style>
  </defs>
  <path id="Shape_2_copy" data-name="Shape 2 copy" class="cls-1" d="M623.976,1079.83l-6.976-.54a102.622,102.622,0,0,1,11.582-36.92c9.376-17.51,28.267-39.57,65.02-45.232,31.939-4.918,57.392-10.091,70.243-27.858,12.565-17.372,14.337-48.122,5.745-99.7-9.85-59.143,10.833-79.383,24.039-86.183,20.6-10.607,48.594-2.772,71.315,19.965,5.9,5.9,13.188,16.078,21.631,27.866,23.922,33.395,60.1,83.885,99.219,81.551,23.646-1.394,46.606-22,68.246-61.258,12.6-22.84,23.22-41.547,32.59-58.052,25.05-44.118,37.62-66.263,39.76-83.372,2.07-16.576-5.94-29.57-21.91-55.459l-3.01-4.883c-15.47-25.152-12.38-50.346,8.25-67.394,29.81-24.632,88.6-26.357,128.61,10.338l-4.73,5.163a101.04,101.04,0,0,0-63.9-26.283c-21.38-.929-42.14,5.122-55.53,16.181-17.95,14.837-20.41,36.1-6.74,58.325l3.01,4.876c16.82,27.286,25.27,40.981,22.89,60.005-2.31,18.49-15.11,41.038-40.62,85.962-9.36,16.487-19.97,35.174-32.54,57.975-22.88,41.5-47.76,63.321-73.965,64.867-1.047.061-2.093,0.092-3.132,0.092-41.618,0-76.526-48.734-102.186-84.555-8.263-11.536-15.4-21.5-20.891-26.994-20.214-20.225-45.6-27.736-63.165-18.69-19.587,10.086-27,38.81-20.338,78.806,9.045,54.3,6.958,85.692-6.979,104.96-14.439,19.964-41.271,25.5-74.848,30.675-27.215,4.19-47.373,18.19-59.915,41.62A96.788,96.788,0,0,0,623.976,1079.83Zm184.1,0.17-6.942-.88a636.322,636.322,0,0,1,14.558-73.51c13.494-50.406,29.971-77.172,48.974-79.549,15.841-1.985,30.534,9.394,49.147,23.8,33.473,25.9,79.316,61.373,160.6,34.26,61.68-20.57,74.4-70.163,86.7-118.122,12.28-47.852,24.97-97.333,87.12-113.557l1.77,6.776c-58.16,15.183-69.79,60.521-82.11,108.522-12.77,49.776-25.98,101.247-91.26,123.024-21.61,7.206-40.8,10.19-57.98,10.19-50.246,0-83.24-25.532-109.118-45.554-17.336-13.412-31.022-24-44-22.387C833.221,937.052,813.1,1040.49,808.076,1080Z" transform="translate(-617 -564.406)"/>
  <path id="Shape_3_copy" data-name="Shape 3 copy" class="cls-2" d="M850,749a52,52,0,1,0,52,52,52,52,0,0,0-52-52m67.5-49A16.5,16.5,0,1,0,934,716.5,16.5,16.5,0,0,0,917.5,700" transform="translate(-617 -564.406)"/>
  <circle id="Ellipse_1_copy" data-name="Ellipse 1 copy" class="cls-3" cx="463" cy="481.594" r="74"/>
</svg>
