<svg id="Layer_1" data-name="Layer 1" xmlns="http://www.w3.org/2000/svg" viewBox="0 0 512 326.83"><path d="M468.24,114.1a91.12,91.12,0,0,0-128.85,0l-39,39-19-18.94,46.41-46.41A18,18,0,1,0,302.4,62.38L243.28,121.5l-96.11,96.1A55.2,55.2,0,0,1,69.1,139.54L74,134.68a48.31,48.31,0,0,1,68.36,0,18,18,0,0,0,25.41-25.42,84.27,84.27,0,0,0-119.17,0l-4.86,4.86A91.14,91.14,0,1,0,172.58,243L256,159.62l18.94,18.94L249.4,204.09a18,18,0,0,0,25.41,25.42L300.35,204l39,39A91.13,91.13,0,1,0,468.24,114.1ZM382.79,139a21.21,21.21,0,1,1-21.21,21.21A21.19,21.19,0,0,1,382.79,139Z"/><path d="M227.17,269.69a14.8,14.8,0,0,1-3.53-.36,18.93,18.93,0,0,1-3.37-1,16,16,0,0,1-3.09-1.65,13.54,13.54,0,0,1-2.73-2.24,12.86,12.86,0,0,1-2.23-2.73,15.19,15.19,0,0,1-1.65-3.08,17.6,17.6,0,0,1-1-3.39,17,17,0,0,1,0-7,17.51,17.51,0,0,1,1-3.38,14.93,14.93,0,0,1,1.65-3.08,13.17,13.17,0,0,1,2.23-2.74,18.27,18.27,0,0,1,16.24-5,15.22,15.22,0,0,1,3.31,1.08,16.33,16.33,0,0,1,3.09,1.65,16.62,16.62,0,0,1,2.8,2.23,16.85,16.85,0,0,1,2.23,2.74,21,21,0,0,1,1.66,3.08,19.87,19.87,0,0,1,1,3.38,17,17,0,0,1,0,7,14.86,14.86,0,0,1-1.08,3.39,12.71,12.71,0,0,1-1.65,3.08,13.5,13.5,0,0,1-2.23,2.73,13.82,13.82,0,0,1-2.73,2.24,16.33,16.33,0,0,1-3.09,1.65,18.79,18.79,0,0,1-3.38,1A14.45,14.45,0,0,1,227.17,269.69Z"/></svg>