<?xml version="1.0" encoding="iso-8859-1"?>
<!-- Generator: Adobe Illustrator 21.1.0, SVG Export Plug-In . SVG Version: 6.00 Build 0)  -->
<svg version="1.1" id="Layer_1" xmlns="http://www.w3.org/2000/svg" xmlns:xlink="http://www.w3.org/1999/xlink" x="0px" y="0px"
	 viewBox="0 0 24 24" enable-background="new 0 0 24 24" xml:space="preserve">
<g>
	<circle fill="#303C42" cx="3.5" cy="3.5" r="0.5"/>
	<circle fill="#303C42" cx="5.5" cy="3.5" r="0.5"/>
	<circle fill="#303C42" cx="7.5" cy="3.5" r="0.5"/>
	<path fill="#303C42" d="M21,1H3C1.8974609,1,1,1.8969727,1,3v18c0,1.1030273,0.8974609,2,2,2h18c1.1025391,0,2-0.8969727,2-2V3
		C23,1.8969727,22.1025391,1,21,1z M3,2h18c0.5517578,0,1,0.4487305,1,1v2H2V3C2,2.4487305,2.4482422,2,3,2z M21,22H3
		c-0.5517578,0-1-0.4487305-1-1V6h20v15C22,21.5512695,21.5517578,22,21,22z"/>
	<path fill="#303C42" d="M16.5,9H15c-0.2763672,0-0.5,0.2236328-0.5,0.5S14.7236328,10,15,10h0.2929688L12,13.2929688L8.7070312,10
		H9c0.2763672,0,0.5-0.2236328,0.5-0.5S9.2763672,9,9,9H7.5C7.2236328,9,7,9.2236328,7,9.5V11c0,0.2763672,0.2236328,0.5,0.5,0.5
		S8,11.2763672,8,11v-0.2929688L11.2929688,14L8,17.2929688V17c0-0.2763672-0.2236328-0.5-0.5-0.5S7,16.7236328,7,17v1.5
		C7,18.7763672,7.2236328,19,7.5,19H9c0.2763672,0,0.5-0.2236328,0.5-0.5S9.2763672,18,9,18H8.7070312L12,14.7070312L15.2929688,18
		H15c-0.2763672,0-0.5,0.2236328-0.5,0.5S14.7236328,19,15,19h1.5c0.2763672,0,0.5-0.2236328,0.5-0.5V17
		c0-0.2763672-0.2236328-0.5-0.5-0.5S16,16.7236328,16,17v0.2929688L12.7070312,14L16,10.7070312V11
		c0,0.2763672,0.2236328,0.5,0.5,0.5S17,11.2763672,17,11V9.5C17,9.2236328,16.7763672,9,16.5,9z"/>
</g>
<g>
</g>
<g>
</g>
<g>
</g>
<g>
</g>
<g>
</g>
<g>
</g>
<g>
</g>
<g>
</g>
<g>
</g>
<g>
</g>
<g>
</g>
<g>
</g>
<g>
</g>
<g>
</g>
<g>
</g>
</svg>
